<?xml version="1.0" encoding="UTF-8" standalone="no"?>
<!DOCTYPE svg PUBLIC "-//W3C//DTD SVG 1.1//EN"
 "http://www.w3.org/Graphics/SVG/1.1/DTD/svg11.dtd">
<!-- Generated by graphviz version 2.26.3 (20100126.1600)
 -->
<!-- Title: models_diagram Pages: 1 -->
<svg width="651pt" height="688pt"
 viewBox="0.00 0.00 651.00 688.00" xmlns="http://www.w3.org/2000/svg" xmlns:xlink="http://www.w3.org/1999/xlink">
<g id="graph1" class="graph" transform="scale(1 1) rotate(0) translate(4 684)">
<title>models_diagram</title>
<polygon fill="white" stroke="white" points="-4,5 -4,-684 648,-684 648,5 -4,5"/>
<!-- _diagram_info -->
<g id="node1" class="node"><title>_diagram_info</title>
<text text-anchor="start" x="104.5" y="-613.4" font-family="Times,serif" font-size="14.00">Models diagram</text>
<text text-anchor="start" x="104.5" y="-598.4" font-family="Times,serif" font-size="14.00">Date: Mar 11 2010 &#45; 23:42</text>
<text text-anchor="start" x="104.5" y="-583.4" font-family="Times,serif" font-size="14.00">Migration version: 20100221003058</text>
<text text-anchor="start" x="104.5" y="-568.4" font-family="Times,serif" font-size="14.00">Generated by RailRoad 0.5.0</text>
</g>
<!-- Cart -->
<g id="node2" class="node"><title>Cart</title>
<polyline fill="none" stroke="black" points="190.5,-397 301.5,-397 "/>
<path fill="none" stroke="black" d="M301.5,-397C307.5,-397 313.5,-403 313.5,-409"/>
<polyline fill="none" stroke="black" points="313.5,-409 313.5,-461 "/>
<path fill="none" stroke="black" d="M313.5,-461C313.5,-467 307.5,-473 301.5,-473"/>
<polyline fill="none" stroke="black" points="301.5,-473 190.5,-473 "/>
<path fill="none" stroke="black" d="M190.5,-473C184.5,-473 178.5,-467 178.5,-461"/>
<polyline fill="none" stroke="black" points="178.5,-461 178.5,-409 "/>
<path fill="none" stroke="black" d="M178.5,-409C178.5,-403 184.5,-397 190.5,-397"/>
<text text-anchor="middle" x="246" y="-456.4" font-family="Times,serif" font-size="14.00">Cart</text>
<polyline fill="none" stroke="black" points="178.5,-450 313.5,-450 "/>
<text text-anchor="start" x="186.5" y="-433.4" font-family="Times,serif" font-size="14.00">created_at :datetime</text>
<text text-anchor="start" x="186.5" y="-418.4" font-family="Times,serif" font-size="14.00">updated_at :datetime</text>
<text text-anchor="start" x="186.5" y="-403.4" font-family="Times,serif" font-size="14.00">price_name :string</text>
</g>
<!-- CartRow -->
<g id="node3" class="node"><title>CartRow</title>
<polyline fill="none" stroke="black" points="11.5,-8 122.5,-8 "/>
<path fill="none" stroke="black" d="M122.5,-8C128.5,-8 134.5,-14 134.5,-20"/>
<polyline fill="none" stroke="black" points="134.5,-20 134.5,-72 "/>
<path fill="none" stroke="black" d="M134.5,-72C134.5,-78 128.5,-84 122.5,-84"/>
<polyline fill="none" stroke="black" points="122.5,-84 11.5,-84 "/>
<path fill="none" stroke="black" d="M11.5,-84C5.5,-84 -0.5,-78 -0.5,-72"/>
<polyline fill="none" stroke="black" points="-0.5,-72 -0.5,-20 "/>
<path fill="none" stroke="black" d="M-0.5,-20C-0.5,-14 5.5,-8 11.5,-8"/>
<text text-anchor="middle" x="67" y="-67.4" font-family="Times,serif" font-size="14.00">CartRow</text>
<polyline fill="none" stroke="black" points="-0.5,-61 134.5,-61 "/>
<text text-anchor="start" x="7.5" y="-44.4" font-family="Times,serif" font-size="14.00">created_at :datetime</text>
<text text-anchor="start" x="7.5" y="-29.4" font-family="Times,serif" font-size="14.00">updated_at :datetime</text>
<text text-anchor="start" x="7.5" y="-14.4" font-family="Times,serif" font-size="14.00">quantity :integer</text>
</g>
<!-- Cart&#45;&gt;CartRow -->
<g id="edge4" class="edge"><title>Cart&#45;&gt;CartRow</title>
<path fill="none" stroke="black" d="M177.839,-390.662C142.68,-363.776 102.884,-326.157 82,-282 53.2347,-221.18 55.1505,-141.518 60.2544,-92.0602"/>
<polygon fill="black" stroke="black" points="178.189,-390.924 183.495,-400.521 182.191,-393.922 186.193,-396.919 186.193,-396.919 186.193,-396.919 182.191,-393.922 188.891,-393.317 178.189,-390.924 178.189,-390.924"/>
<ellipse fill="black" stroke="black" cx="60.694" cy="-88.0655" rx="4.00001" ry="4.00001"/>
</g>
<!-- ProductType -->
<g id="node7" class="node"><title>ProductType</title>
<polyline fill="none" stroke="black" points="103,-145 235,-145 "/>
<path fill="none" stroke="black" d="M235,-145C241,-145 247,-151 247,-157"/>
<polyline fill="none" stroke="black" points="247,-157 247,-269 "/>
<path fill="none" stroke="black" d="M247,-269C247,-275 241,-281 235,-281"/>
<polyline fill="none" stroke="black" points="235,-281 103,-281 "/>
<path fill="none" stroke="black" d="M103,-281C97,-281 91,-275 91,-269"/>
<polyline fill="none" stroke="black" points="91,-269 91,-157 "/>
<path fill="none" stroke="black" d="M91,-157C91,-151 97,-145 103,-145"/>
<text text-anchor="middle" x="169" y="-264.4" font-family="Times,serif" font-size="14.00">ProductType</text>
<polyline fill="none" stroke="black" points="91,-258 247,-258 "/>
<text text-anchor="start" x="99" y="-241.4" font-family="Times,serif" font-size="14.00">name :string</text>
<text text-anchor="start" x="99" y="-226.4" font-family="Times,serif" font-size="14.00">description :text</text>
<text text-anchor="start" x="99" y="-211.4" font-family="Times,serif" font-size="14.00">standard_price :decimal</text>
<text text-anchor="start" x="99" y="-196.4" font-family="Times,serif" font-size="14.00">crew_price :decimal</text>
<text text-anchor="start" x="99" y="-181.4" font-family="Times,serif" font-size="14.00">created_at :datetime</text>
<text text-anchor="start" x="99" y="-166.4" font-family="Times,serif" font-size="14.00">updated_at :datetime</text>
<text text-anchor="start" x="99" y="-151.4" font-family="Times,serif" font-size="14.00">purchase_price :decimal</text>
</g>
<!-- Cart&#45;&gt;ProductType -->
<g id="edge2" class="edge"><title>Cart&#45;&gt;ProductType</title>
<path fill="none" stroke="black" d="M229.404,-387.153C219.675,-359.101 207.148,-322.986 196.027,-290.923"/>
<polygon fill="black" stroke="black" points="229.486,-387.389 228.512,-398.311 231.125,-392.113 232.763,-396.837 232.763,-396.837 232.763,-396.837 231.125,-392.113 237.015,-395.362 229.486,-387.389 229.486,-387.389"/>
<polygon fill="black" stroke="black" points="195.903,-290.564 196.877,-279.641 194.264,-285.84 192.626,-281.116 192.626,-281.116 192.626,-281.116 194.264,-285.84 188.374,-282.591 195.903,-290.564 195.903,-290.564"/>
</g>
<!-- Purchase -->
<g id="node9" class="node"><title>Purchase</title>
<polyline fill="none" stroke="black" points="439.5,-175 550.5,-175 "/>
<path fill="none" stroke="black" d="M550.5,-175C556.5,-175 562.5,-181 562.5,-187"/>
<polyline fill="none" stroke="black" points="562.5,-187 562.5,-239 "/>
<path fill="none" stroke="black" d="M562.5,-239C562.5,-245 556.5,-251 550.5,-251"/>
<polyline fill="none" stroke="black" points="550.5,-251 439.5,-251 "/>
<path fill="none" stroke="black" d="M439.5,-251C433.5,-251 427.5,-245 427.5,-239"/>
<polyline fill="none" stroke="black" points="427.5,-239 427.5,-187 "/>
<path fill="none" stroke="black" d="M427.5,-187C427.5,-181 433.5,-175 439.5,-175"/>
<text text-anchor="middle" x="495" y="-234.4" font-family="Times,serif" font-size="14.00">Purchase</text>
<polyline fill="none" stroke="black" points="427.5,-228 562.5,-228 "/>
<text text-anchor="start" x="435.5" y="-211.4" font-family="Times,serif" font-size="14.00">created_at :datetime</text>
<text text-anchor="start" x="435.5" y="-196.4" font-family="Times,serif" font-size="14.00">updated_at :datetime</text>
<text text-anchor="start" x="435.5" y="-181.4" font-family="Times,serif" font-size="14.00">price_name :string</text>
</g>
<!-- Cart&#45;&gt;Purchase -->
<g id="edge6" class="edge"><title>Cart&#45;&gt;Purchase</title>
<path fill="none" stroke="black" d="M263.636,-389.061C276.999,-359.831 298.034,-323.236 327,-300 346.734,-284.17 358.037,-292.615 381,-282 397.571,-274.339 414.759,-264.845 430.608,-255.376"/>
<ellipse fill="none" stroke="black" cx="261.862" cy="-393.052" rx="4.00002" ry="4.00002"/>
<ellipse fill="black" stroke="black" cx="434.366" cy="-253.103" rx="4.00002" ry="4.00002"/>
</g>
<!-- Credit -->
<g id="node4" class="node"><title>Credit</title>
<polyline fill="none" stroke="black" points="520.5,-15.5 631.5,-15.5 "/>
<path fill="none" stroke="black" d="M631.5,-15.5C637.5,-15.5 643.5,-21.5 643.5,-27.5"/>
<polyline fill="none" stroke="black" points="643.5,-27.5 643.5,-64.5 "/>
<path fill="none" stroke="black" d="M643.5,-64.5C643.5,-70.5 637.5,-76.5 631.5,-76.5"/>
<polyline fill="none" stroke="black" points="631.5,-76.5 520.5,-76.5 "/>
<path fill="none" stroke="black" d="M520.5,-76.5C514.5,-76.5 508.5,-70.5 508.5,-64.5"/>
<polyline fill="none" stroke="black" points="508.5,-64.5 508.5,-27.5 "/>
<path fill="none" stroke="black" d="M508.5,-27.5C508.5,-21.5 514.5,-15.5 520.5,-15.5"/>
<text text-anchor="middle" x="576" y="-59.9" font-family="Times,serif" font-size="14.00">Credit</text>
<polyline fill="none" stroke="black" points="508.5,-53.5 643.5,-53.5 "/>
<text text-anchor="start" x="516.5" y="-36.9" font-family="Times,serif" font-size="14.00">created_at :datetime</text>
<text text-anchor="start" x="516.5" y="-21.9" font-family="Times,serif" font-size="14.00">updated_at :datetime</text>
</g>
<!-- Delivery -->
<g id="node5" class="node"><title>Delivery</title>
<polyline fill="none" stroke="black" points="347.5,-301 458.5,-301 "/>
<path fill="none" stroke="black" d="M458.5,-301C464.5,-301 470.5,-307 470.5,-313"/>
<polyline fill="none" stroke="black" points="470.5,-313 470.5,-365 "/>
<path fill="none" stroke="black" d="M470.5,-365C470.5,-371 464.5,-377 458.5,-377"/>
<polyline fill="none" stroke="black" points="458.5,-377 347.5,-377 "/>
<path fill="none" stroke="black" d="M347.5,-377C341.5,-377 335.5,-371 335.5,-365"/>
<polyline fill="none" stroke="black" points="335.5,-365 335.5,-313 "/>
<path fill="none" stroke="black" d="M335.5,-313C335.5,-307 341.5,-301 347.5,-301"/>
<text text-anchor="middle" x="403" y="-360.4" font-family="Times,serif" font-size="14.00">Delivery</text>
<polyline fill="none" stroke="black" points="335.5,-354 470.5,-354 "/>
<text text-anchor="start" x="343.5" y="-337.4" font-family="Times,serif" font-size="14.00">created_at :datetime</text>
<text text-anchor="start" x="343.5" y="-322.4" font-family="Times,serif" font-size="14.00">updated_at :datetime</text>
<text text-anchor="start" x="343.5" y="-307.4" font-family="Times,serif" font-size="14.00">quantity :integer</text>
</g>
<!-- Product -->
<g id="node6" class="node"><title>Product</title>
<polyline fill="none" stroke="black" points="334,-0.5 466,-0.5 "/>
<path fill="none" stroke="black" d="M466,-0.5C472,-0.5 478,-6.5 478,-12.5"/>
<polyline fill="none" stroke="black" points="478,-12.5 478,-79.5 "/>
<path fill="none" stroke="black" d="M478,-79.5C478,-85.5 472,-91.5 466,-91.5"/>
<polyline fill="none" stroke="black" points="466,-91.5 334,-91.5 "/>
<path fill="none" stroke="black" d="M334,-91.5C328,-91.5 322,-85.5 322,-79.5"/>
<polyline fill="none" stroke="black" points="322,-79.5 322,-12.5 "/>
<path fill="none" stroke="black" d="M322,-12.5C322,-6.5 328,-0.5 334,-0.5"/>
<text text-anchor="middle" x="400" y="-74.9" font-family="Times,serif" font-size="14.00">Product</text>
<polyline fill="none" stroke="black" points="322,-68.5 478,-68.5 "/>
<text text-anchor="start" x="330" y="-51.9" font-family="Times,serif" font-size="14.00">created_at :datetime</text>
<text text-anchor="start" x="330" y="-36.9" font-family="Times,serif" font-size="14.00">updated_at :datetime</text>
<text text-anchor="start" x="330" y="-21.9" font-family="Times,serif" font-size="14.00">sold_for_price :decimal</text>
<text text-anchor="start" x="330" y="-6.9" font-family="Times,serif" font-size="14.00">purchase_price :decimal</text>
</g>
<!-- Delivery&#45;&gt;Product -->
<g id="edge8" class="edge"><title>Delivery&#45;&gt;Product</title>
<path fill="none" stroke="black" d="M402.506,-290.768C401.968,-238.24 401.11,-154.438 400.551,-99.8124"/>
<polygon fill="black" stroke="black" points="402.508,-290.996 398.111,-301.042 402.56,-295.996 402.611,-300.996 402.611,-300.996 402.611,-300.996 402.56,-295.996 407.111,-300.95 402.508,-290.996 402.508,-290.996"/>
<ellipse fill="black" stroke="black" cx="400.508" cy="-95.6384" rx="4" ry="4"/>
</g>
<!-- ProductType&#45;&gt;CartRow -->
<g id="edge16" class="edge"><title>ProductType&#45;&gt;CartRow</title>
<path fill="none" stroke="black" d="M121.89,-135.868C112.597,-120.655 103.132,-105.157 94.7368,-91.4122"/>
<polygon fill="black" stroke="black" points="122.006,-136.059 123.378,-146.938 124.612,-140.326 127.218,-144.593 127.218,-144.593 127.218,-144.593 124.612,-140.326 131.059,-142.247 122.006,-136.059 122.006,-136.059"/>
<ellipse fill="black" stroke="black" cx="92.5359" cy="-87.8087" rx="4.00002" ry="4.00002"/>
</g>
<!-- ProductType&#45;&gt;Product -->
<g id="edge12" class="edge"><title>ProductType&#45;&gt;Product</title>
<path fill="none" stroke="black" d="M255.502,-150.464C280.17,-132.63 306.726,-113.432 330.258,-96.4193"/>
<polygon fill="black" stroke="black" points="255.31,-150.603 244.57,-152.815 251.258,-153.532 247.206,-156.461 247.206,-156.461 247.206,-156.461 251.258,-153.532 249.843,-160.108 255.31,-150.603 255.31,-150.603"/>
<ellipse fill="black" stroke="black" cx="333.57" cy="-94.0253" rx="4.00002" ry="4.00002"/>
</g>
<!-- ProductType&#45;&gt;ProductType -->
<g id="edge18" class="edge"><title>ProductType&#45;&gt;ProductType</title>
<path fill="none" stroke="black" d="M257.237,-218.903C262.104,-217.467 265,-215.499 265,-213 265,-210.501 262.104,-208.533 257.237,-207.097"/>
<polygon fill="black" stroke="black" points="257.165,-218.917 246.492,-216.4 252.256,-219.867 247.347,-220.818 247.347,-220.818 247.347,-220.818 252.256,-219.867 248.203,-225.236 257.165,-218.917 257.165,-218.917"/>
<polygon fill="black" stroke="black" points="257.165,-207.083 248.203,-200.764 252.256,-206.133 247.347,-205.182 247.347,-205.182 247.347,-205.182 252.256,-206.133 246.492,-209.6 257.165,-207.083 257.165,-207.083"/>
<text text-anchor="middle" x="285" y="-207.9" font-family="Times,serif" font-size="14.00">parents</text>
</g>
<!-- ProductType&#45;&gt;ProductType -->
<g id="edge20" class="edge"><title>ProductType&#45;&gt;ProductType</title>
<path fill="none" stroke="black" d="M257.113,-230.544C283.702,-229.804 305,-223.955 305,-213 305,-202.045 283.702,-196.196 257.113,-195.456"/>
<polygon fill="black" stroke="black" points="257.107,-230.544 247.089,-226.086 252.107,-230.565 247.107,-230.586 247.107,-230.586 247.107,-230.586 252.107,-230.565 247.126,-235.086 257.107,-230.544 257.107,-230.544"/>
<polygon fill="black" stroke="black" points="257.107,-195.456 247.126,-190.914 252.107,-195.435 247.107,-195.414 247.107,-195.414 247.107,-195.414 252.107,-195.435 247.089,-199.914 257.107,-195.456 257.107,-195.456"/>
<text text-anchor="middle" x="329.5" y="-207.9" font-family="Times,serif" font-size="14.00">children</text>
</g>
<!-- ProductTypeRelation -->
<g id="node8" class="node"><title>ProductTypeRelation</title>
<polyline fill="none" stroke="black" points="172,-15.5 288,-15.5 "/>
<path fill="none" stroke="black" d="M288,-15.5C294,-15.5 300,-21.5 300,-27.5"/>
<polyline fill="none" stroke="black" points="300,-27.5 300,-64.5 "/>
<path fill="none" stroke="black" d="M300,-64.5C300,-70.5 294,-76.5 288,-76.5"/>
<polyline fill="none" stroke="black" points="288,-76.5 172,-76.5 "/>
<path fill="none" stroke="black" d="M172,-76.5C166,-76.5 160,-70.5 160,-64.5"/>
<polyline fill="none" stroke="black" points="160,-64.5 160,-27.5 "/>
<path fill="none" stroke="black" d="M160,-27.5C160,-21.5 166,-15.5 172,-15.5"/>
<text text-anchor="middle" x="230" y="-59.9" font-family="Times,serif" font-size="14.00">ProductTypeRelation</text>
<polyline fill="none" stroke="black" points="160,-53.5 300,-53.5 "/>
<text text-anchor="start" x="168" y="-36.9" font-family="Times,serif" font-size="14.00">created_at :datetime</text>
<text text-anchor="start" x="168" y="-21.9" font-family="Times,serif" font-size="14.00">updated_at :datetime</text>
</g>
<!-- ProductType&#45;&gt;ProductTypeRelation -->
<g id="edge10" class="edge"><title>ProductType&#45;&gt;ProductTypeRelation</title>
<path fill="none" stroke="black" d="M212.51,-135.289C213.76,-132.184 214.93,-129.081 216,-126 220.559,-112.874 223.682,-97.9989 225.8,-84.6663"/>
<polygon fill="black" stroke="black" points="212.467,-135.39 204.405,-142.823 210.506,-139.989 208.545,-144.588 208.545,-144.588 208.545,-144.588 210.506,-139.989 212.684,-146.353 212.467,-135.39 212.467,-135.39"/>
<ellipse fill="black" stroke="black" cx="226.408" cy="-80.5507" rx="4.00001" ry="4.00001"/>
<text text-anchor="middle" x="247.5" y="-112.9" font-family="Times,serif" font-size="14.00">childings</text>
</g>
<!-- ProductType&#45;&gt;ProductTypeRelation -->
<g id="edge14" class="edge"><title>ProductType&#45;&gt;ProductTypeRelation</title>
<path fill="none" stroke="black" d="M147.184,-134.774C147.608,-126.2 149.354,-117.772 153,-110 157.919,-99.5152 165.493,-90.153 174.007,-82.0392"/>
<polygon fill="black" stroke="black" points="147.185,-134.877 142.759,-144.91 147.222,-139.877 147.259,-144.877 147.259,-144.877 147.259,-144.877 147.222,-139.877 151.759,-144.843 147.185,-134.877 147.185,-134.877"/>
<ellipse fill="black" stroke="black" cx="177.056" cy="-79.2976" rx="4.00002" ry="4.00002"/>
<text text-anchor="middle" x="182.5" y="-112.9" font-family="Times,serif" font-size="14.00">parentings</text>
</g>
<!-- Purchase&#45;&gt;Credit -->
<g id="edge24" class="edge"><title>Purchase&#45;&gt;Credit</title>
<path fill="none" stroke="black" d="M517.236,-167.156C529.902,-141.042 545.583,-108.711 557.56,-84.0174"/>
<ellipse fill="none" stroke="black" cx="515.329" cy="-171.088" rx="4.00002" ry="4.00002"/>
<ellipse fill="black" stroke="black" cx="559.405" cy="-80.2134" rx="4.00002" ry="4.00002"/>
</g>
<!-- Purchase&#45;&gt;Product -->
<g id="edge22" class="edge"><title>Purchase&#45;&gt;Product</title>
<path fill="none" stroke="black" d="M468.091,-165.696C456.209,-144.809 442.195,-120.175 429.98,-98.7011"/>
<polygon fill="black" stroke="black" points="468.26,-165.995 469.294,-176.912 470.733,-170.341 473.205,-174.687 473.205,-174.687 473.205,-174.687 470.733,-170.341 477.116,-172.462 468.26,-165.995 468.26,-165.995"/>
<ellipse fill="black" stroke="black" cx="427.889" cy="-95.0267" rx="4.00002" ry="4.00002"/>
</g>
<!-- User -->
<g id="node10" class="node"><title>User</title>
<polyline fill="none" stroke="black" points="352.5,-513 563.5,-513 "/>
<path fill="none" stroke="black" d="M563.5,-513C569.5,-513 575.5,-519 575.5,-525"/>
<polyline fill="none" stroke="black" points="575.5,-525 575.5,-667 "/>
<path fill="none" stroke="black" d="M575.5,-667C575.5,-673 569.5,-679 563.5,-679"/>
<polyline fill="none" stroke="black" points="563.5,-679 352.5,-679 "/>
<path fill="none" stroke="black" d="M352.5,-679C346.5,-679 340.5,-673 340.5,-667"/>
<polyline fill="none" stroke="black" points="340.5,-667 340.5,-525 "/>
<path fill="none" stroke="black" d="M340.5,-525C340.5,-519 346.5,-513 352.5,-513"/>
<text text-anchor="middle" x="458" y="-662.4" font-family="Times,serif" font-size="14.00">User</text>
<polyline fill="none" stroke="black" points="340.5,-656 575.5,-656 "/>
<text text-anchor="start" x="348.5" y="-639.4" font-family="Times,serif" font-size="14.00">login :string</text>
<text text-anchor="start" x="348.5" y="-624.4" font-family="Times,serif" font-size="14.00">name :string</text>
<text text-anchor="start" x="348.5" y="-609.4" font-family="Times,serif" font-size="14.00">email :string</text>
<text text-anchor="start" x="348.5" y="-594.4" font-family="Times,serif" font-size="14.00">crypted_password :string</text>
<text text-anchor="start" x="348.5" y="-579.4" font-family="Times,serif" font-size="14.00">salt :string</text>
<text text-anchor="start" x="348.5" y="-564.4" font-family="Times,serif" font-size="14.00">created_at :datetime</text>
<text text-anchor="start" x="348.5" y="-549.4" font-family="Times,serif" font-size="14.00">updated_at :datetime</text>
<text text-anchor="start" x="348.5" y="-534.4" font-family="Times,serif" font-size="14.00">remember_token :string</text>
<text text-anchor="start" x="348.5" y="-519.4" font-family="Times,serif" font-size="14.00">remember_token_expires_at :datetime</text>
</g>
<!-- User&#45;&gt;Cart -->
<g id="edge32" class="edge"><title>User&#45;&gt;Cart</title>
<path fill="none" stroke="black" d="M340.44,-506.721C327.337,-496.77 314.473,-487 302.66,-478.03"/>
<polygon fill="black" stroke="black" points="340.621,-506.858 345.863,-516.49 344.603,-509.882 348.585,-512.906 348.585,-512.906 348.585,-512.906 344.603,-509.882 351.306,-509.322 340.621,-506.858 340.621,-506.858"/>
<ellipse fill="black" stroke="black" cx="299.397" cy="-475.551" rx="4.00002" ry="4.00002"/>
</g>
<!-- User&#45;&gt;Credit -->
<g id="edge30" class="edge"><title>User&#45;&gt;Credit</title>
<path fill="none" stroke="black" d="M500.276,-503.498C526.068,-442.101 556.735,-358.942 571,-282 583.685,-213.578 581.742,-132.092 578.995,-84.9768"/>
<polygon fill="black" stroke="black" points="500.246,-503.57 492.202,-511.023 498.296,-508.174 496.346,-512.778 496.346,-512.778 496.346,-512.778 498.296,-508.174 500.489,-514.533 500.246,-503.57 500.246,-503.57"/>
<ellipse fill="black" stroke="black" cx="578.742" cy="-80.8645" rx="4" ry="4"/>
</g>
<!-- User&#45;&gt;Delivery -->
<g id="edge26" class="edge"><title>User&#45;&gt;Delivery</title>
<path fill="none" stroke="black" d="M438.076,-502.9C429.522,-462.932 419.909,-418.009 412.912,-385.316"/>
<polygon fill="black" stroke="black" points="438.126,-503.136 435.819,-513.856 439.173,-508.025 440.219,-512.914 440.219,-512.914 440.219,-512.914 439.173,-508.025 444.619,-511.973 438.126,-503.136 438.126,-503.136"/>
<ellipse fill="black" stroke="black" cx="412.029" cy="-381.189" rx="4.00001" ry="4.00001"/>
</g>
<!-- User&#45;&gt;Purchase -->
<g id="edge28" class="edge"><title>User&#45;&gt;Purchase</title>
<path fill="none" stroke="black" d="M467.012,-502.717C474.462,-425.601 484.726,-319.349 490.529,-259.277"/>
<polygon fill="black" stroke="black" points="466.99,-502.941 461.549,-512.462 466.509,-507.918 466.028,-512.895 466.028,-512.895 466.028,-512.895 466.509,-507.918 470.508,-513.327 466.99,-502.941 466.99,-502.941"/>
<ellipse fill="black" stroke="black" cx="490.933" cy="-255.097" rx="4" ry="4"/>
</g>
</g>
</svg>
